<svg xmlns="http://www.w3.org/2000/svg" viewBox="0 0 73.8 73.47"><defs><style>.cls-1{fill:#939598;}</style></defs><title>context-control</title><g id="Layer_2" data-name="Layer 2"><g id="Layer_1-2" data-name="Layer 1"><path id="Gears_alt_" data-name="Gears (alt)" class="cls-1" d="M42.31,52.91a16.8,16.8,0,0,0,0-5.32h0l4.4-3.51-2.39-5.92-5.6.54h0A16.93,16.93,0,0,0,35,34.9v0l.64-5.59-5.88-2.5-3.57,4.34-.05,0a18.53,18.53,0,0,0-5.38,0v0l-3.46-4.4-5.9,2.39L12,34.68l0,0a19,19,0,0,0-3.8,3.74h0L2.6,37.79.1,43.67l4.34,3.57h0a16.78,16.78,0,0,0,0,5.33h0L0,56.1,2.39,62,8,61.47H8a16.9,16.9,0,0,0,3.74,3.81h0l-.65,5.59L17,73.36,20.55,69v0a19.32,19.32,0,0,0,5.33,0h0l3.5,4.41,5.92-2.39-.54-5.6v0a18.8,18.8,0,0,0,3.8-3.74h0l5.59.64,2.5-5.88-4.34-3.58Zm-15,6.94a10.54,10.54,0,1,1,5.82-13.72A10.55,10.55,0,0,1,27.33,59.85ZM68.81,24l5-2.08V16.85l-5-1.85h0c-.36,0-.91-2.41-1.62-3.62v.14l2.13-3.85L65.74,4.12,61.82,6.26l.44,0C61,5.57,58.8,5,58.8,4.68h0L56.63,0H51.55L49.8,4.65v0c0,.36-2.46.91-3.66,1.62h.11L42.38,4.15,38.83,7.74,41,11.66l0-.28C40.28,12.59,39.75,15,39.38,15h0L35.8,16.85v5.07L39.37,24h0c.36,0,.91,2.3,1.62,3.5v-.19l-2.14,3.82,3.58,3.54,3.92-2.16-.23,0c1.21.71,3.66,1.25,3.66,1.61h0L51.55,38h5.07l2.17-3.89v0c0-.36,2.25-.91,3.46-1.62H62l3.81,2.14L69.38,31l-2.16-3.92,0,.39c.71-1.21,1.24-3.5,1.6-3.5ZM54.09,27.74a8.36,8.36,0,1,1,8.36-8.36A8.37,8.37,0,0,1,54.09,27.74Z"/></g></g></svg>