<svg xmlns="http://www.w3.org/2000/svg" viewBox="0 0 69.33 65.5"><defs><style>.cls-1{fill:#939598;}</style></defs><title>legal-ass</title><g id="Layer_2" data-name="Layer 2"><g id="Layer_1-2" data-name="Layer 1"><g id="contract_ok" data-name="contract ok"><g id="contract_ok-2" data-name="contract ok"><path class="cls-1" d="M36.14,0H20.92a2.21,2.21,0,0,0-2.21,2.22v9.67a2.22,2.22,0,0,0,2.21,2.22H36.14a2.22,2.22,0,0,0,2.21-2.22V2.22A2.22,2.22,0,0,0,36.14,0ZM31.81,8.55H25.38c-.85,0-3.65-2.48-3.65-3.7a2.21,2.21,0,0,1,2.2-2.21h9.19a2.21,2.21,0,0,1,2.21,2.21C35.33,6.06,32.67,8.55,31.81,8.55Z"/><path class="cls-1" d="M38.66,20.7a1.15,1.15,0,0,1-1,1.26H5.81a1.15,1.15,0,0,1-1-1.26h0a1.15,1.15,0,0,1,1-1.26H37.65a1.15,1.15,0,0,1,1,1.26Z"/><path class="cls-1" d="M33.2,28.93a1.16,1.16,0,0,1-1,1.26H5.82a1.16,1.16,0,0,1-1-1.26h0a1.16,1.16,0,0,1,1-1.26H32.18a1.16,1.16,0,0,1,1,1.26Z"/><path class="cls-1" d="M27.82,37.16c0,.7-.32,1.26-.72,1.26H5.51c-.4,0-.72-.56-.72-1.26h0c0-.69.32-1.26.72-1.26H27.1c.4,0,.72.57.72,1.26Z"/><path class="cls-1" d="M28.87,53.62A4.35,4.35,0,0,1,24.52,58H9.15a4.35,4.35,0,0,1-4.35-4.35h0a4.35,4.35,0,0,1,4.35-4.35H24.52a4.35,4.35,0,0,1,4.35,4.35Z"/><path class="cls-1" d="M54.47,59.06V61.8a1,1,0,0,1-1,1H3.7a1,1,0,0,1-1-1V8.9a1,1,0,0,1,1-1H16.78V5.2H3.7A3.71,3.71,0,0,0,0,8.9V61.8a3.7,3.7,0,0,0,3.7,3.7H53.42a3.71,3.71,0,0,0,3.71-3.7V59a15.12,15.12,0,0,1-1.54.08C55.22,59.1,54.84,59.09,54.47,59.06Z"/><path class="cls-1" d="M57.13,27.69V8.9a3.72,3.72,0,0,0-3.71-3.7H40.35V7.86H53.42a1,1,0,0,1,1,1V27.66c.38,0,.75,0,1.13,0S56.63,27.64,57.13,27.69Z"/><path class="cls-1" d="M57.13,29.72a13.27,13.27,0,0,0-1.54-.09c-.38,0-.76,0-1.13.05a13.73,13.73,0,0,0,0,27.36c.37,0,.75.05,1.13.05A14.33,14.33,0,0,0,57.13,57a13.73,13.73,0,0,0,0-27.28Zm-3.6,21.8-.14.11,0,0a1.36,1.36,0,0,1-1.92,0l-5.8-5.8a1.36,1.36,0,0,1,1.92-1.92l4.85,4.85L63.62,37.61a1.36,1.36,0,0,1,1.92,0,1.34,1.34,0,0,1,0,1.91Z"/></g></g></g></g></svg>