<svg xmlns="http://www.w3.org/2000/svg" viewBox="0 0 58.04 79.15"><defs><style>.cls-1,.cls-2{fill:#939598;}.cls-1{fill-rule:evenodd;}</style></defs><title>legislation-explorer</title><g id="Layer_2" data-name="Layer 2"><g id="Layer_1-2" data-name="Layer 1"><path class="cls-1" d="M17.11,37.21v-2.8H27.59V5.48H13.9a11.47,11.47,0,0,0,.52,1q5,7.73,10.06,15.44a.79.79,0,0,1,0,1.06,9.89,9.89,0,0,1-5.19,3.6,20.09,20.09,0,0,1-15-.67A8.87,8.87,0,0,1,.64,23a.76.76,0,0,1,0-1Q5.75,14.22,10.81,6.44a2.53,2.53,0,0,0,.35-1.18c.05-.85,0-1.71,0-2.66H27.63V0h2.81V2.55h16.5c0,.92,0,1.75,0,2.58a2.32,2.32,0,0,0,.41,1.44c3.34,5.1,6.67,10.22,10,15.32a.9.9,0,0,1,0,1.23,9.69,9.69,0,0,1-4.47,3.24,19.9,19.9,0,0,1-15.61-.4,8.73,8.73,0,0,1-3.66-3,.76.76,0,0,1,0-1q5.08-7.77,10.13-15.55a9.53,9.53,0,0,0,.47-1H30.51V34.38H41v2.82Zm4.13-15L12.6,8.92,3.92,22.21Zm32.89,0L45.5,8.93,36.86,22.2Z"/><rect class="cls-2" y="40.67" width="58.04" height="5.56"/><rect class="cls-2" y="52.6" width="58.04" height="3.18"/><rect class="cls-2" y="60.39" width="58.04" height="3.18"/><rect class="cls-2" y="68.18" width="58.04" height="3.18"/><rect class="cls-2" y="75.97" width="40.45" height="3.18"/></g></g></svg>