<svg xmlns="http://www.w3.org/2000/svg" viewBox="0 0 66.15 52.06"><defs><style>.cls-1{fill:#939598;}</style></defs><title>lessons-learned</title><g id="Layer_2" data-name="Layer 2"><g id="Layer_1-2" data-name="Layer 1"><path class="cls-1" d="M64,2.93c-.92,0-1.8,0-2.67,0V0h-1C41.44,0,35.12,4.52,33.08,7,31,4.52,24.71,0,5.84,0h-1V3c-.87,0-1.74,0-2.67,0H0V45.73H2.2c23.28,0,28,5.34,28.71,6.33h4.37C36,51,40.86,45.73,64,45.73h2.2V2.93ZM31.62,43.8c-3.26-2.4-10.07-5.17-24.32-5.36v-36c20,.26,23.81,5.72,24.32,6.62Zm27.23-5.36c-14.25.19-21.07,3-24.32,5.36V9.08c.56-1,4.52-6.37,24.32-6.63Zm0,0"/></g></g></svg>